<?xml version="1.0" encoding="utf-8"?>
<!-- Generator: Adobe Illustrator 27.2.0, SVG Export Plug-In . SVG Version: 6.00 Build 0)  -->
<svg version="1.1" id="Layer_1" xmlns="http://www.w3.org/2000/svg" xmlns:xlink="http://www.w3.org/1999/xlink" x="0px" y="0px"
	 viewBox="0 0 295.4 295.4" style="enable-background:new 0 0 295.4 295.4;" xml:space="preserve">
<style type="text/css">
	.st0{fill:#0F6A7B;}
</style>
<g>
	<g>
		<path class="st0" d="M132,1.2c27.9-3,56.7,2,81.8,14.7c28.6,14.2,52.3,38.1,66.4,66.8c13,26.1,17.7,56,13.9,84.8
			c-3.9,30-17.4,58.5-38,80.6c-20.5,22.2-48,38-77.7,44.1c-29.9,6.3-61.8,3.2-89.8-9.1c-28.4-12.4-52.6-34-68.2-60.7
			C7,199.5,0,173,0.3,146.4c0.2-33.7,12.5-67.1,34.1-92.9C58.5,24.3,94.3,5.1,132,1.2z M128.9,5.1c-31.1,4-60.7,18.8-82.7,41.1
			C22.8,69.6,7.9,101.3,4.9,134.3c-2.9,29.9,3.8,60.6,19,86.4c14.2,24.4,35.8,44.5,61.3,56.8c27.4,13.4,59.1,17.6,89.1,11.9
			c28.6-5.3,55.4-19.6,75.7-40.4c21.9-22.2,36.3-51.6,40.2-82.6c3.8-29-1.5-59.1-15-85.1c-13.8-26.6-36-48.7-62.8-62.2
			C186.8,6.2,157.3,1.2,128.9,5.1z"/>
	</g>
	<g>
		<path class="st0" d="M129.8,8.1c26.1-3.4,53.1,0.7,76.9,11.8c28.8,13.3,52.8,36.7,66.8,65.2c13.4,26.8,17.7,57.9,12.5,87.4
			c-5,28.6-19.1,55.6-39.8,75.9c-21.2,21.1-49.3,35-79,39.1c-26.3,3.7-53.6-0.2-77.7-11.3c-29.1-13.2-53.4-36.8-67.5-65.5
			C8.4,183.4,4.2,151.5,9.9,121.5c5.4-29.1,20.4-56.3,42-76.5C73.2,24.9,100.8,11.8,129.8,8.1z M97.6,23.7c-1.3,2.3,1,5.3,1.2,7.8
			c-1,0.8-2,1.6-3,2.4c1.2,0.5,2.4,1,3.6,1.5c-0.5,2.4,0.3,6.3-3.2,6.3c0.6,4.8,1.9,9.4,4.1,13.7c0.5,1.5,2.2,2,3.5,2.8
			c0.4-5.7-3.5-10.4-5.4-15.5c0.6-0.6,1.9-1.7,2.5-2.2c1,1.6,1.9,3.2,3.1,4.8c0.7-0.2,2.1-0.8,2.8-1c0.1,0.1,0.2,0.4,0.2,0.5
			c-1.2,1.1-2.3,2.2-3.2,3.5c1.5-0.2,3-0.5,4.5-0.8c0.4,0.8,1.1,2.3,1.5,3.1c0.6-2.1,1.2-4.3,2-6.4c-0.8-0.2-2.4-0.5-3.2-0.6
			c0.3-0.4,0.8-1.2,1-1.6c-1.7-1.5-1.3-3.5-1-5.5c1.3-0.6,2.7-1.2,4.1-1.6c2.2,3.3,3.1,7.3,4.5,11c-0.5,0.4-1.6,1.3-2.1,1.7
			c1.2,1,2.4,2,3.6,3c3.8-3.5,1.4-9.1-0.1-13.2c-1.2-2-1.4-5.4-4.1-6c-4.8,1.2-8.7,4.5-13.1,6.5c0.4-1.3,0.8-2.6,1.2-3.9
			c1.8-1.3,3.6-2.6,5.3-4c-1.6-1.5-3.7-1.3-5.7-0.8C101.1,26.8,100.6,23.3,97.6,23.7z M188.9,31.2c-2.6-0.2-5.7-1.4-7.7,1
			c1.4,1.4,3.1,2.3,5,3c-4.1,5.7-10.7,8.3-16.5,11.9c2.9-0.1,5.9-0.1,8.7-1.2c3.7-1.2,6.2-4.4,8.8-7c1,4.9,0.6,11.3,5.2,14.4
			c1.2,1,2.9,1,4.4,1.4c-2.9-6-6.4-11.8-7.3-18.5c2.4,0.4,4.9,1.7,7.3,0.6c1.5-3.7-3-3.7-5.4-4.6c0.4-2.8,3.8-6.2,1.6-8.9
			C190.9,25.5,190,28.4,188.9,31.2z M134.8,55.1c-24.7,3.4-47.7,17.3-62.3,37.5c-12.8,17.4-19.2,39.3-17.9,60.9
			c1.2,21.6,10.2,42.7,25.1,58.5c14.7,15.9,35.1,26.4,56.6,28.9c19.7,2.5,40.1-1.5,57.3-11.3c19.2-10.8,34.3-28.6,41.9-49.2
			c8-21.5,7.7-45.9-0.9-67.2C226.4,92.5,210.6,75,191,64.8C173.9,55.8,153.9,52.4,134.8,55.1z M38.9,71.4c1.8-0.8,3.4-2,4.8-3.3
			c1.4,1.4,2.8,2.8,4.1,4.2c-1.7-0.4-3.4-0.9-5.1-1.3c1,2.2,2.8,4,4.4,5.8c0.6-1,1.3-1.9,1.9-2.9c0.8,1.7,1.7,3.3,2.6,4.9
			c0.4-1.2,0.7-2.4,1.1-3.6c4,0.2,6.5-3.8,6-7.5c-1.2,0-2.5-0.1-3.8-0.1c0.2,1.4,0.6,3-0.2,4.3c-1.3,0-2.7-0.2-4-0.4
			c0.1-1.5,0.3-3,0.5-4.5c-0.9-0.2-2.6-0.4-3.5-0.6c0,0.5,0.1,1.5,0.1,2c-2.2-1.6-3.3-3.8-3.6-6.5C41.7,64.7,40.3,68.1,38.9,71.4z
			 M246.3,76.1c0.8,0.7,1.6,1.4,2.4,2.1c3.6-2.5,8.2-4.5,9.1-9.2C253,69.1,249.7,73,246.3,76.1z M247.9,78.9c-2-1.7-3.6-3.9-5.7-5.5
			c-1.6-0.5-4-0.5-5,1.1c-1.3,1.1-0.1,3.5,1.4,3.6c1.4-0.5,2.6-1.4,3.9-2c3.3,3.1,5.8,7.1,8.1,10.9c1,1.3,1,2.8,0.9,4.4
			c1,1.4,2.2,2.6,3.6,3.5c0.7-4.5-1.4-8.4-3.9-11.9c3,1.1,6,2.2,9.1,2.7c0.5-1,1-2.1,1.6-3.1c0.9,0.3,2.5,0.9,3.4,1.3
			c0.5-2.2,1.8-4.2,2-6.4c-1.5-1-3,0.6-4.4,1.1c-1.2-0.7-2.3-1.4-3.5-2.2c1.5-1.6,2.6-3.4,1.6-5.7C256.5,73.2,252.8,77.1,247.9,78.9
			z M35.7,72.7c-1.8,2.8-3,5.9-4.5,8.9c3.3-0.2,5.2-3,7.7-4.8c-0.7,2.1-1.4,4.7-4.3,4.5c4.1,2.8,8.2,5.7,11.8,9
			c1,0.8,2.4,0.4,3.6,0.6c-0.5-2.6-1.1-5.4-3.1-7.4c-0.2,0.8-0.5,2.4-0.7,3.2c-0.9-0.6-1.9-1.1-2.8-1.7c0.2-0.7,0.5-2.2,0.7-2.9
			c1.7,1.1,3.7,1.1,5.6,1.4c0.1-2.6-1.4-4.8-3.7-2c-1.6-2.6-2.9-5.7-5.7-7.2C38.9,73.8,37.3,71.9,35.7,72.7z M51.2,85.6
			c2.5,2.9,5.3,5.7,9.2,6.5c0.9-2.4,1.8-4.9,2.3-7.5c-1.5,1.4-2.8,2.9-4.2,4.4c0.5-2.2,2.7-5.3-0.2-6.7c-0.8,1.5-1.4,3.1-2.1,4.7
			c-1.1-0.6-2.2-1.1-3.3-1.7c1.3-1.5,2.5-3,3.8-4.5c2.6,1.3,5,2.9,7.7,4.1c1.1-4.3-3.7-6.8-7-8.3C54.3,78.5,53.1,82.4,51.2,85.6z
			 M67.1,86.1c-2.1,3.6-4.9,6.8-6.5,10.8c0.9-0.2,2.7-0.5,3.6-0.7c2.5-4.6,7.1-8.6,6.9-14.1C69.6,83.2,68.1,84.4,67.1,86.1z
			 M243.1,83.6c0.8,0.8,1.6,1.6,2.5,2.3c-1.4,0.2-2.9,0.5-4.3,0.8c-1.5-1.6-3-3.1-4.7-4.5c0.2,2.5,1.1,4.9,2,7.2
			c-1.5,0.6-3.1,1.2-4.6,1.9c-0.4-0.6-1.3-1.9-1.8-2.6c-0.9,1.7-3.4,3.5-1.5,5.3c3.2,2,6.5-0.5,9.1-2.3c1.3,1,2.6,2.3,4.3,2.4
			c-0.1-2.2-1-4.4-0.9-6.7c1.8,0.4,3.6,1.2,5.5,1.2c0.4-2.8-1.5-5.2-3.5-6.9C244.5,82.4,243.7,83,243.1,83.6z M30.5,143.6
			c-3,0.9-4.1,5.2-1.7,7.4c2.1,2.3,6.4,1.2,7.3-1.8C37.3,146,33.7,142.3,30.5,143.6z M262.7,143.8c-2.8,1.2-3.4,5.4-1,7.4
			c2.3,2.2,6.5,0.8,7.1-2.3C269.9,145.5,265.8,142.1,262.7,143.8z M41.3,181.4c-4.3,1.6-8.8,3.1-13.2,4.2c-0.4-0.1-1.2-0.3-1.6-0.4
			c0-1.4,1.3-2.2,1.9-3.3c-1.2-0.3-2.6-1.2-3.4,0.4c-0.8,2.8,1.4,5.3,4.2,5.2c4.9-0.5,9.4-2.8,14.1-3.9c0.5,0.5,1.4,1.5,1.9,2
			c-0.8-2.4-1.6-4.8-2.1-7.3C42.6,179.3,42.7,181.1,41.3,181.4z M251.4,184.4c0.5-0.4,1.6-1.1,2.2-1.4c2.1,2.3,3.9,4.8,5.8,7.2
			c-3,0.8-6.1,1.6-9.2,1.7c-0.1-0.7-0.4-2-0.6-2.6c-0.8,2.6-1.8,5.1-2.9,7.5c3.4-2.5,7.8-2.9,11.9-3.8c2.7-0.6,5.1,1.3,7.6,2.1
			c-0.1,1.1-0.2,2.1-0.2,3.2c0.9-2.2,1.7-4.3,2.7-6.5c-3.4,0.6-7.2-0.7-9.3-3.5c-2.3-3.1-5.1-6.1-5.6-10
			C253,180.4,252.2,182.4,251.4,184.4z M46.9,192.5c-4.8,2.3-9.8,4.5-14.7,6.6c-0.5-0.4-1.5-1.3-2-1.8c1,2.4,2,4.8,2.9,7.1
			c0-0.7,0.1-2.2,0.2-2.9c4.5-2,8.8-4.2,13.3-5.9c1.5-0.9,2.6,0.7,3.7,1.5c-1.4-2.5-2.5-5.1-3.6-7.8
			C46.8,190.4,46.8,191.5,46.9,192.5z M245.1,199.7c-2.6,4.2-5.3,8.5-7.9,12.7c1,0.8,1.9,1.6,2.9,2.4c-1.1-2.5-0.3-4.9,1.1-7.1
			c4.6,2.9,9.3,5.7,13.9,8.7c-0.1,0.8-0.3,2.3-0.4,3c1.4-2.4,2.8-4.8,4.3-7.2c-0.8,0.6-1.6,1.2-2.4,1.9c-4.7-2.8-9.4-5.8-14-8.7
			c1.5-2.1,3.2-4.3,6.1-3.9C247.4,201,246.2,200.4,245.1,199.7z M52,200.1c-0.1,1.4-0.2,2.7-0.4,4.1c-4,2.9-8.4,5.3-12.5,8
			c-0.8-0.6-1.7-1.2-2.5-1.8c1.3,2,2.5,4,3.7,6c-0.2-0.8-0.5-2.3-0.7-3c3.7-2.6,7.5-4.9,11.4-7.2c-2,6.2-4.2,12.4-6.2,18.6
			c5.2-3,10.2-6.5,15.5-9.4c0.6,0.5,1.7,1.5,2.3,2c-1.3-2.1-2.6-4.2-3.8-6.2c0.2,1,0.5,2,0.7,3.1c-3.5,2.4-7.2,4.7-10.9,6.9
			c1.7-5.2,3.5-10.2,5.2-15.4C54.7,203.7,52.7,201.9,52,200.1z M229.2,221.9c0.6-0.3,1.8-0.9,2.4-1.2c2.6,1.5,4.6,3.6,6.9,5.5
			c2.2,2,5.2,3.7,5.5,7c1.1-1.5,2.2-2.9,3.5-4.3c-3.7-0.4-5.9-3.7-8.7-5.8c-2-2-5.3-3.6-5-6.9C232.3,218.2,230.7,220,229.2,221.9z
			 M50.6,232c1.4,1.1,2.8,2.3,4.1,3.5c-1.5-2.9,1.9-3.6,3.9-4.4c2.1,1.4,3.8,3.3,5.6,5.1c-1.2,1.9-1.8,6-4.8,3.9
			c1.6,1.5,3.2,3.1,4.6,4.7c1.3-7,4.8-13.4,7-20.1C64.1,226.9,57.9,231.5,50.6,232z M223.9,228c-2.1,1.1-4.6,2-5.4,4.4
			c-1.2,2.7,0.9,6.2,3.9,6.3c3.4,0.1,6.6-1.4,10-1.2c2.8,0.8,2.4,4.8,0.1,6c-2.2,1.9-5.1,0.6-7.4-0.2c1.2,1.3,2.4,2.6,3.6,3.9
			c2.1-1.7,4.8-2.9,6.5-5.1c1.8-2.7,0.4-6.8-2.8-7.5c-3.7-0.4-7.2,1.5-10.9,1.2c-2.6-0.8-2-4.7,0.2-5.6c2.3-1.6,4.9,0,7.1,0.9
			c-1.5-1.6-3-3.2-4.4-4.9C224.2,226.8,224,227.6,223.9,228z M79.3,234c0.5,1.2,1,2.3,1.5,3.5c-2.8,4.3-5.4,8.6-8.4,12.8
			c-0.8-0.2-2.3-0.5-3-0.7c1.9,1.2,3.8,2.4,5.6,3.9c-0.4-1.2-1.7-2.6-0.6-3.8c1.9-3.5,4.3-6.6,6.4-10c0.8,6.5,1.3,13,2.3,19.5
			c3.5-4.9,6.5-10.1,10-15c1,0.3,2,0.6,3,0.9c-2-1.3-3.9-2.6-5.9-3.9c0.4,0.6,1.2,1.7,1.7,2.3c-2.2,3.3-3.8,7.4-6.9,10
			c-0.8-5.6-1.2-11.3-1.9-16.9C81.9,235.7,80.6,234.9,79.3,234z M198.5,245.7c3,1.1,4.3,4.1,6,6.5c1.7,2.9,4.2,5.6,4.4,9.1
			c1.8-1.3,3.7-2.6,5.6-3.8c-0.8,0.2-2.3,0.5-3.1,0.7c-1.5-2.1-2.9-4.2-4.1-6.4c0.4-0.2,1.3-0.6,1.8-0.8c3.4,1,6.6,2.5,10,3.6
			c1.4-0.9,2.8-1.9,4.2-2.8c-4.2,1.1-8.1-1.1-11.9-2.6c0.6-1.9,2.2-3.8,1.3-5.9c-0.8-2-3.1-3.2-5.2-2.6
			C204.1,242,201.5,244.2,198.5,245.7z M102.2,248.3c0.5,0.5,1.6,1.5,2.1,1.9c-1.1,3.8-2.7,7.5-3.7,11.4c-2.3,6.5,8.2,11.1,12.2,6.3
			c2.5-3.7,3-8.3,5-12.3c0.7-0.3,2-0.9,2.7-1.2c-2.1-0.6-4.2-1.3-6.2-2.1c0.8,0.6,1.6,1.3,2.4,1.9c-1.3,4.1-2.4,8.2-4.3,12
			c-2.1,4.5-10.8,2.2-9.6-2.9c0.9-4.1,2.2-8.1,3.9-11.9c0.7-0.2,2.1-0.7,2.8-0.9C107,250,104.6,249.2,102.2,248.3z M180.1,253.5
			c0.6,0.1,1.7,0.3,2.3,0.4c2.7,4.5,4.1,9.7,6.2,14.4c-0.3,0.5-1,1.6-1.3,2.2c4.1-1.7,8.3-3.4,12.5-5c0-1.7-0.1-3.4-0.1-5.1
			c-0.6,1.5-1.1,3.1-1.9,4.5c-2,1.4-4.3,2.1-6.6,3c-1.1-2.5-2.1-5.1-3.2-7.6c2.7-1.1,5.9-3,8.2-0.1c-0.9-1.9-1.6-3.9-2.2-5.9
			c-0.3,3.3-3.6,4.1-6.2,5.3c-1-2.3-1.9-4.7-2.9-7c2.3-0.8,4.6-2.2,7.1-2.3c0.9,0.6,1.9,1.2,2.8,1.9c-0.7-1.2-1.3-2.5-2-3.8
			C188.7,250.1,184.5,251.9,180.1,253.5z M171.4,255.4c0.5,0.2,1.6,0.8,2.2,1c0.2,4.8-1.7,9.4-2.5,14c-2.7-4-5.4-8-7.9-12.2
			c0.6-0.4,1.8-1.3,2.4-1.7c-2.5,0.4-4.9,0.8-7.4,0.9c5.8,4.5,8.4,11.9,13,17.5c1.3-5.2,2.3-10.5,3.5-15.7c0.4-1.8,1.3-3.5,2.4-4.9
			C175.2,254.7,173.3,255.1,171.4,255.4z M123.1,255.2c0.9,0.8,1.8,1.6,2.7,2.4c0,5.1-1.2,10.1-1.9,15.1c-0.7,0.3-2,0.9-2.7,1.1
			c2,0.1,4.1,0.3,6.1,0.5c-0.5-0.4-1.4-1.1-1.9-1.5c-0.1-4.4,1-8.7,1.6-13c3.6,5.4,6.7,11.1,10.2,16.5c1.3-5.6,1.4-11.4,2.8-16.9
			c0.6-0.4,1.7-1.3,2.3-1.8c-2.1-0.1-4.2-0.4-6.3-0.6c0.9,0.4,1.8,0.9,2.7,1.3c-0.4,4.3-1,8.6-1.6,12.9c-3.2-5.1-6.2-10.2-9.3-15.3
			C126.2,255.7,124.6,255.5,123.1,255.2z M146.1,257.7c0.9,0.5,1.8,1,2.7,1.5c0.2,5.4,0.5,10.8,0.4,16.2c-0.8,0.2-2.3,0.6-3,0.8
			c2.8,0.1,5.5,0,8.2,0.2c-0.8-0.6-1.6-1.2-2.3-1.9c-0.6-5.2-0.5-10.4-0.6-15.6c0.6-0.3,1.7-0.9,2.3-1.2
			C151.2,257.7,148.6,257.7,146.1,257.7z"/>
	</g>
	<path class="st0" d="M103.2,38.5c0.7,0,2.1,0.1,2.8,0.2c-0.2,1.1-0.5,2.2-0.7,3.4C104.6,40.9,103.9,39.7,103.2,38.5z"/>
	<g>
		<path class="st0" d="M105.2,107.7c22.2-10.1,44.4-20.4,66.7-30.4c10.6,19.5,15.6,42,13.9,64.1c-0.9,13.4-4.4,26.6-9.7,38.9
			c-28.9,0.1-57.8,0-86.7,0.1c-2.5,0.1-5.1-0.4-7.2-1.8c-5.9-3.7-11.2-9.2-12.6-16.3c6.4-1.2,11.5,3.9,17.8,3.5
			c7.2,0.2,14-3.5,18.3-9c5.7-6.3,5.8-15.4,5.9-23.4C111.7,124.5,109.3,115.7,105.2,107.7z M145.4,109.9c-0.1,3.5-0.1,7-0.1,10.5
			c-3.7,0-7.4,0-11.1-0.1c2.7-1.7,5.6-3,8.6-4.1c0-2,0.1-3.9,0.1-5.9c-8.7,1.6-16.2,7.3-20.6,14.9c7.7,0.1,15.3,0,23,0.1
			c0,4,0,7.9,0,11.9c-1.2,0-2.4,0-3.6-0.1c0-2.8,0-5.5,0-8.3c-7.1,0-14.1-0.1-21.2,0.1c-0.4,1.6-0.8,3.2-1.1,4.8
			c5.8,0,11.6,0,17.4,0c0,1.1,0,2.3,0.1,3.4c-6,0.1-12.1,0-18.1,0c-0.2,7.5,1.9,15.2,6.8,21c4.3,5.4,10.7,8.8,17.3,10.4c0-2,0-4,0-6
			c-9.5-2.4-16.9-10.8-18.2-20.5c4.1,0,8.1,0,12.2,0c0,0.8,0,2.4-0.1,3.3c-2.6,0-5.1,0-7.6,0c0.8,1.6,1.6,3.3,2.3,4.9
			c4.6,0.1,9.2,0.1,13.8,0.1c0,0.7-0.1,2.1-0.1,2.8c-3.7,0-7.4-0.1-11.2,0.1c3.1,2.9,7,4.8,11.2,5.6c0,3.3,0,6.7,0.1,10
			c1.9,0,3.8,0,5.7,0c0-3.4,0-6.7,0.1-10c4-1,7.8-2.8,10.8-5.6c-3.6-0.1-7.3-0.1-10.9-0.1c0-0.9,0.1-1.9,0.1-2.8
			c4.6-0.2,9.2,0.4,13.7-0.3c0.9-1.4,1.6-3,2.4-4.6c-2.6-0.1-5.2-0.1-7.7-0.1c0-0.8,0-2.4,0-3.2c4.1,0,8.1,0,12.2,0
			c-1.3,9.8-8.7,18.1-18.2,20.6c0,2,0,3.9,0.1,5.9c7.4-1.7,14.3-5.9,18.7-12.2c4-5.5,5.5-12.4,5.4-19.1c-6,0-12.1,0-18.1,0
			c0-1.1,0-2.3,0-3.4c5.8,0,11.7,0,17.5,0c-0.5-1.6-0.9-3.2-1.4-4.9c-7,0-14,0-20.9,0c0,2.8,0,5.6-0.1,8.4c-1.2-0.1-2.4-0.1-3.6-0.2
			c0-3.9,0-7.9,0-11.8c7.7,0,15.3,0.1,23,0c-4.3-7.7-11.9-13.1-20.5-15c0,2,0,3.9-0.1,5.9c3,1.1,5.9,2.3,8.5,4.1
			c-3.6,0.2-7.3,0.2-10.9,0.1c0-3.5,0-7,0-10.4C149.2,110,147.3,110,145.4,109.9z"/>
	</g>
	<path class="st0" d="M253.1,80.8c1.6-1.2,3.2-2.4,4.8-3.6c0.9,1,1.9,1.9,2.8,2.9c-1.6,0.1-3.5-0.6-4.5,0.9
		c-1.5,2.2-4.3,1.5-6.5,1.2C250.8,81.8,251.9,81.3,253.1,80.8z"/>
	<path class="st0" d="M41.3,78.8c0.6,1.7,0.4,3.4,0,5.1C39.1,82.5,40.2,80.6,41.3,78.8z"/>
	<path class="st0" d="M141.7,142.1c4.4,0,8.7,0,13.1,0c0,0.8,0,2.4,0,3.3c-4.3,0-8.7,0-13,0C141.7,144.5,141.7,142.9,141.7,142.1z"
		/>
	<path class="st0" d="M219.6,154.7c3-1.5,6.2-2.5,9.3-3.8c-1.3,10-4.3,20.3-11.4,27.8c-5.2,3.2-11.9,1-17.7,1.6
		c2.6-7.3,5.2-14.6,7.7-22c2.9-0.9,5.8-1.7,8.7-2.6c-1.2,3.6-2.7,7-3.6,10.7c0.4,0.1,1.4,0.4,1.8,0.5
		C217.1,163.3,217.1,158.4,219.6,154.7z"/>
	<path class="st0" d="M196.5,160.5c2.8-0.5,5.5-1.1,8.2-1.6c-2.5,7.1-5,14.2-7.5,21.4c-2.3,0-4.6,0-6.9,0c-0.4-1.8-0.9-3.5-1.3-5.2
		c-0.6,1.7-1.2,3.5-1.8,5.2c-2.6,0-5.3,0-7.9,0c2.6-6,4.8-12.1,6.5-18.4c2.4-0.3,4.7-0.5,7.1-0.8c0.4,2.1,0.8,4.1,1.2,6.2
		C194.9,165,195.8,162.8,196.5,160.5z"/>
	<path class="st0" d="M115,198.6c0.6-2.9,3-4.7,5.6-5.8c1.2,0.8,1,2.3,1,3.5c0,4.8-0.1,9.6,0,14.5c-0.5,0.1-1.6,0.1-2.1,0.2
		c-0.1-5.1-0.1-10.2,0-15.2C118,196.8,116.6,197.7,115,198.6z"/>
	<g>
		<path class="st0" d="M134.4,205.1c-5.3-1.2-5.4-10.5,0.1-11.7c2.9-0.8,6.7-0.2,8,2.9c1.4,3.9,1.5,8.8-0.8,12.4
			c-3.1,3.9-10.2,2.7-11.6-2.2c2.9-0.3,4.3,3.5,7.3,2.8c2.9-0.2,3.3-3.6,4.3-5.7C139.3,204.5,136.9,205.8,134.4,205.1z M134.8,195.1
			c-3.4,1.7-2.7,8.5,1.5,8.5c4.3,0.6,5.7-5.7,2.9-8.1C137.9,194.6,136.2,194.6,134.8,195.1z"/>
	</g>
	<g>
		<path class="st0" d="M150.6,193.8c3-1.4,7.4-0.7,8.9,2.6c1.5,3.5,1.4,7.7,0.1,11.2c-2.2,5.1-11.2,4.3-12.2-1.3
			C146.5,202.1,146.3,196.2,150.6,193.8z M151.6,195.5c-2.9,2.8-2.4,7.6-1.4,11.1c0.8,3.1,5.7,3.4,7,0.5c1.4-3,1.3-6.6,0.3-9.7
			C156.7,195,153.6,194.4,151.6,195.5z"/>
	</g>
	<g>
		<path class="st0" d="M165.3,196.5c2.3-5.1,11.4-4.3,11.9,1.6c-2.5-0.9-4.5-4-7.4-3.2c-2.4,0.5-2.7,3.5-3.7,5.3
			c2.8-0.9,6.1-2.3,8.8-0.4c3.4,2.7,3,9.6-1.6,10.8c-3,0.9-7,0.2-8.3-3C163.8,204.1,163.7,200,165.3,196.5z M168.8,201
			c-2.1,1.3-2.2,4.4-1.4,6.4c1.6,3.4,7.9,2.1,7.4-2C175.6,202,171.9,199.2,168.8,201z"/>
	</g>
	<path class="st0" d="M59.7,230.7c2.5-1.1,5.1-2.2,7.6-3.3c-1,2.6-1.9,5.1-2.9,7.7C62.8,233.6,61.3,232.1,59.7,230.7z"/>
	<path class="st0" d="M202.4,244.4c2.2-1.2,5.3-3,7.1-0.2c2.2,2.7-0.5,5.6-2.5,7.4C205.4,249.2,203.9,246.8,202.4,244.4z"/>
</g>
</svg>
